<svg width="44" height="44" viewBox="0 0 44 44" fill="none" xmlns="http://www.w3.org/2000/svg" role="img" aria-label="전자정부 표준프레임워크">
  <defs>
    <linearGradient id="egLogoGrad" x1="0" y1="0" x2="44" y2="44" gradientUnits="userSpaceOnUse">
      <stop offset="0" stop-color="#2D74F0"/>
      <stop offset="1" stop-color="#1B57D6"/>
    </linearGradient>
    <linearGradient id="egLogoShine" x1="0" y1="0" x2="0" y2="44" gradientUnits="userSpaceOnUse">
      <stop offset="0" stop-color="#ffffff" stop-opacity="0.25"/>
      <stop offset="0.5" stop-color="#ffffff" stop-opacity="0"/>
    </linearGradient>
  </defs>
  <rect x="1" y="1" width="42" height="42" rx="13" fill="url(#egLogoGrad)"/>
  <rect x="1" y="1" width="42" height="42" rx="13" fill="url(#egLogoShine)"/>
  <rect x="1.5" y="1.5" width="41" height="41" rx="12.5" stroke="#ffffff" stroke-opacity="0.16"/>
  <path d="M30.5 23.2H17.4c0.5 3.0 2.7 4.8 5.9 4.8 2.1 0 3.7-0.7 4.9-2.0l3.0 2.7c-1.9 2.3-4.7 3.5-8.1 3.5-6.2 0-10.3-4.1-10.3-9.9 0-5.8 4.1-9.9 9.7-9.9 5.5 0 9.4 3.8 9.4 9.9 0 0.3 0 0.6-0.1 0.9zM17.5 20.4h9.1c-0.4-2.7-2.2-4.4-4.5-4.4-2.4 0-4.2 1.6-4.6 4.4z" fill="#ffffff"/>
</svg>
